<svg xmlns="http://www.w3.org/2000/svg" width="353.6" height="87.289"><g word-spacing="0"><g style="line-height:125%;-inkscape-font-specification:SourceT Sans" font-size="51.119" font-weight="900" letter-spacing=".3" fill="#0c486c" font-family="Titillium Web"><path d="M23.004 34.915H0V.665h11.86v24.588h11.144v9.662M25.26 34.915V.665h11.86v34.25H25.26M40.537 34.915V.665h11.655l7.873 12.984h.715V.665h11.86v34.25H60.934l-7.77-13.956h-.767v13.956h-11.86M87.637.665v22.441c0 .988.238 1.687.715 2.096.512.409 1.347.613 2.505.613 1.159 0 1.977-.204 2.454-.613.477-.41.716-1.108.716-2.096V.665h11.86V22.44c0 4.84-1.21 8.248-3.63 10.224-2.42 1.943-6.237 2.914-11.45 2.914-5.18 0-8.98-.954-11.4-2.863-2.42-1.908-3.63-5.265-3.63-10.07V.665h11.86M119.152.665l3.118 9.406 3.987-9.406h11.655L130.5 16.972l6.952 17.943h-12.166l-3.016-9.1-3.118 9.1h-12.065l7.31-16.41-7.31-17.84h12.065M139.03 34.915V24.742h11.655v10.173H139.03M178.858 34.25a46.395 46.395 0 0 1-11.093 1.33c-3.783 0-6.697-.53-8.742-1.586-2.045-1.09-3.527-2.896-4.447-5.418-.886-2.522-1.33-6.152-1.33-10.889 0-6.782 1.04-11.416 3.119-13.904C158.478 1.26 162.482 0 168.378 0c2.454 0 5.35.34 8.69 1.022l1.79.358-.307 9.15c-2.795-.34-5.385-.51-7.77-.51-2.352 0-3.868.46-4.55 1.38-.682.886-1.022 2.743-1.022 5.572 0 2.828.153 4.788.46 5.878.34 1.09.869 1.824 1.584 2.198.716.341 1.875.512 3.477.512l7.974-.307.154 8.997M192.164 17.79c0 2.896.273 4.992.818 6.287.58 1.261 1.755 1.892 3.527 1.892 1.807 0 2.982-.63 3.528-1.892.545-1.26.818-3.357.818-6.287 0-2.965-.273-5.061-.818-6.288-.512-1.261-1.67-1.892-3.476-1.892-1.807 0-3 .648-3.579 1.943-.545 1.26-.818 3.34-.818 6.237m20.652 0c0 6.236-1.295 10.769-3.885 13.597-2.59 2.795-6.73 4.192-12.422 4.192-5.657 0-9.797-1.414-12.422-4.243-2.59-2.828-3.885-7.344-3.885-13.546 0-6.237 1.295-10.753 3.885-13.547C186.677 1.414 190.818 0 196.51 0c5.692 0 9.832 1.414 12.422 4.243 2.59 2.794 3.885 7.31 3.885 13.547M215.464 34.915V.665h11.655l7.873 12.984h.715V.665h11.86v34.25H235.86l-7.77-13.956h-.767v13.956h-11.86M250.909 34.915V.665h24.69v9.661h-12.83v5.521h9.763v9.662h-9.764v9.406h-11.86M276.715 34.915V24.742h11.655v10.173h-11.655M289.756 34.915l7.566-34.25h17.943l7.719 34.25h-11.962l-.971-3.937h-7.822l-.818 3.937h-11.655m15.95-24.947l-1.943 11.962h5.06l-1.84-11.962h-1.278M335.35.665v22.441c0 .988.239 1.687.716 2.096.511.409 1.346.613 2.505.613 1.159 0 1.976-.204 2.454-.613.477-.41.715-1.108.715-2.096V.665h11.86V22.44c0 4.84-1.21 8.248-3.63 10.224-2.42 1.943-6.236 2.914-11.45 2.914-5.18 0-8.98-.954-11.4-2.863-2.42-1.908-3.63-5.265-3.63-10.07V.665h11.86" style="text-align:start;line-height:125%;-inkscape-font-specification:Titillium Web Heavy"/></g><g style="line-height:125%;-inkscape-font-specification:SourceT Sans" font-size="25.931" font-weight="400" letter-spacing="0" fill="#00b3cc" font-family="SourceT Sans"><path d="M11.876 41.906v17.089H5.99V48.208l-3.578 1.426-1.556-4.201 6.068-3.527h4.952M22.28 46.315c-.673 0-1.157.147-1.451.44-.294.294-.467.735-.519 1.323l.26-.104a5.051 5.051 0 0 1 1.892-.363c1.971 0 3.423.476 4.357 1.426.933.934 1.4 2.403 1.4 4.409 0 1.988-.58 3.466-1.737 4.434-1.159.968-2.75 1.452-4.772 1.452-2.385 0-4.14-.726-5.264-2.178-1.123-1.452-1.685-3.63-1.685-6.535 0-3.475.709-5.886 2.126-7.235.674-.656 1.426-1.123 2.256-1.4a7.987 7.987 0 0 1 2.541-.415c1.504 0 3.216.225 5.135.674l.96.208-.416 4.304c-1.936-.293-3.63-.44-5.082-.44m-.519 5.886c-.536 0-1.028.104-1.478.311 0 .795.095 1.366.285 1.712.19.328.57.492 1.141.492.813 0 1.22-.415 1.22-1.244 0-.847-.39-1.271-1.168-1.271M29.703 54.976v-5.109H42.67v5.109H29.703M56.75 58.995H44.872v-4.46l2.256-2.178a52.5 52.5 0 0 0 1.4-1.349l1.09-1.089a6.44 6.44 0 0 0 .803-.985c.242-.363.38-.631.415-.804.052-.19.078-.38.078-.57 0-.45-.13-.735-.39-.856-.259-.121-.717-.182-1.374-.182a19.03 19.03 0 0 0-3.423.285l-.544.104-.26-4.434c1.798-.64 3.674-.96 5.628-.96 1.97 0 3.509.45 4.615 1.349 1.124.882 1.686 2.118 1.686 3.708 0 1.573-.26 2.81-.778 3.708-.519.899-1.487 1.841-2.904 2.827l-1.738 1.218h5.316v4.668M58.674 50.464c0-3.147.51-5.411 1.53-6.794 1.02-1.4 2.783-2.1 5.29-2.1s4.253.69 5.238 2.074c.985 1.365 1.478 3.63 1.478 6.794 0 3.146-.501 5.42-1.504 6.82-.985 1.383-2.74 2.074-5.264 2.074s-4.287-.691-5.29-2.074c-.985-1.4-1.478-3.665-1.478-6.794m7.209-3.89c-.104-.086-.25-.13-.44-.13-.191 0-.338.044-.442.13-.103.086-.19.277-.259.57-.121.52-.182 1.625-.182 3.32 0 1.677.052 2.766.156 3.267.121.484.363.726.726.726s.596-.242.7-.726c.121-.501.182-1.4.182-2.697 0-1.296-.018-2.195-.052-2.697-.017-.501-.06-.899-.13-1.193-.069-.293-.155-.484-.26-.57M86.408 41.621v12.784c0 1.694-.415 2.939-1.245 3.734-.64.64-1.797 1.011-3.474 1.115-.64.052-1.478.078-2.516.078v-4.953h.493a.66.66 0 0 0 .311-.155.705.705 0 0 0 .234-.337c.034-.121.069-.338.103-.649.052-.484.078-1.348.078-2.593v-9.024h6.016M86.954 58.995l3.838-17.374h9.101l3.916 17.374h-6.068l-.493-1.997h-3.967l-.415 1.997h-5.912m8.09-12.654l-.985 6.067h2.567l-.933-6.067h-.649M104.72 58.995V41.62h5.912l3.993 6.587h.363V41.62h6.016v17.374h-5.938l-3.941-7.08h-.39v7.08h-6.015M128.757 41.621v11.384c0 .501.12.856.363 1.063.259.207.682.311 1.27.311s1.003-.104 1.245-.311c.242-.207.363-.562.363-1.063V41.62h6.016v11.047c0 2.455-.614 4.183-1.841 5.186-1.228.985-3.164 1.478-5.809 1.478-2.627 0-4.555-.484-5.782-1.452-1.228-.968-1.841-2.671-1.841-5.109v-11.15h6.016M138.44 58.995l3.838-17.374h9.102l3.916 17.374h-6.068l-.493-1.997h-3.967l-.415 1.997h-5.912m8.09-12.654l-.985 6.067h2.567l-.934-6.067h-.648M163.7 54.509h-1.477v4.486h-6.016V41.62h7.312c2.68 0 4.599.45 5.757 1.349 1.158.881 1.737 2.532 1.737 4.952 0 2.403-.64 4.123-1.919 5.16l1.712 5.913h-6.12l-.985-4.486m-.026-4.746c.847 0 1.27-.561 1.27-1.685 0-1.141-.475-1.711-1.426-1.711h-1.322v3.396h1.478M181.653 58.995h-6.016v-5.446l-4.953-11.928h6.379l1.633 5.109 1.686-5.109h6.353l-5.082 11.928v5.446M205.473 58.995h-11.877v-4.46l2.256-2.178a52.5 52.5 0 0 0 1.4-1.349l1.09-1.089a6.44 6.44 0 0 0 .803-.985c.242-.363.38-.631.415-.804.052-.19.078-.38.078-.57 0-.45-.13-.735-.389-.856-.26-.121-.717-.182-1.374-.182-1.245 0-2.386.095-3.423.285l-.545.104-.259-4.434c1.798-.64 3.674-.96 5.627-.96 1.97 0 3.51.45 4.616 1.349 1.123.882 1.685 2.118 1.685 3.708 0 1.573-.259 2.81-.778 3.708-.518.899-1.486 1.841-2.904 2.827l-1.737 1.218h5.316v4.668M207.398 50.464c0-3.147.51-5.411 1.53-6.794 1.02-1.4 2.783-2.1 5.29-2.1 2.506 0 4.252.69 5.237 2.074.986 1.365 1.478 3.63 1.479 6.794 0 3.146-.502 5.42-1.504 6.82-.986 1.383-2.74 2.074-5.264 2.074s-4.288-.691-5.29-2.074c-.986-1.4-1.478-3.665-1.478-6.794m7.208-3.89c-.103-.086-.25-.13-.44-.13s-.338.044-.441.13c-.104.086-.19.277-.26.57-.12.52-.181 1.625-.181 3.32 0 1.677.052 2.766.155 3.267.121.484.363.726.727.726.363 0 .596-.242.7-.726.12-.501.181-1.4.181-2.697 0-1.296-.017-2.195-.052-2.697-.017-.501-.06-.899-.13-1.193-.069-.293-.155-.484-.259-.57M233.75 41.906v17.089h-5.887V48.208l-3.578 1.426-1.556-4.201 6.068-3.527h4.952M237.49 47.352v-5.446h11.72v5.731l-4.563 11.695-5.809-1.193L243.143 48v-.648h-5.653"/><path d="M266.857 58.995v-6.068h-3.397v6.068h-6.016V41.62h6.016v6.405h3.397v-6.405h6.016v17.374h-6.016M280.413 50.308c0 1.47.138 2.533.415 3.19.293.64.89.959 1.789.959.916 0 1.512-.32 1.789-.96.277-.64.415-1.702.415-3.189 0-1.504-.138-2.567-.415-3.19-.26-.64-.847-.959-1.763-.959-.916 0-1.522.329-1.815.985-.277.64-.415 1.695-.415 3.164m10.476 0c0 3.164-.657 5.463-1.971 6.898-1.314 1.417-3.414 2.126-6.301 2.126-2.87 0-4.97-.717-6.301-2.152-1.314-1.435-1.971-3.726-1.971-6.872 0-3.164.657-5.454 1.97-6.872 1.314-1.435 3.415-2.152 6.302-2.152 2.887 0 4.987.717 6.301 2.152 1.314 1.418 1.97 3.708 1.97 6.872M292.377 41.621h7.857c4.235 0 6.353 1.435 6.353 4.305 0 1.089-.121 1.927-.363 2.515-.225.588-.7 1.141-1.426 1.66.847.363 1.426.812 1.737 1.348.328.519.493 1.392.493 2.619 0 3.285-2.23 4.927-6.69 4.927h-7.961V41.62m7.416 10.502h-1.4v2.853h1.4c.605 0 1.011-.095 1.219-.286.207-.207.31-.579.31-1.115 0-.553-.112-.933-.336-1.14-.225-.208-.623-.312-1.193-.312m-.078-6.534h-1.322v2.774h1.348c.519 0 .882-.112 1.09-.337.206-.225.31-.579.31-1.063 0-.501-.112-.856-.337-1.063-.225-.208-.588-.311-1.089-.311M307.264 58.995l3.838-17.374h9.101l3.916 17.374h-6.068l-.493-1.997h-3.967l-.415 1.997h-5.912m8.09-12.654l-.985 6.067h2.567l-.933-6.067h-.649M332.524 54.509h-1.478v4.486h-6.016V41.62h7.312c2.68 0 4.599.45 5.757 1.349 1.158.881 1.737 2.532 1.737 4.952 0 2.403-.64 4.123-1.919 5.16l1.712 5.913h-6.12l-.985-4.486m-.026-4.746c.847 0 1.27-.561 1.27-1.685 0-1.141-.475-1.711-1.426-1.711h-1.322v3.396h1.478M340.635 46.522v-4.9H353.6v4.9h-3.371v12.473h-6.016V46.522h-3.578" fill="#0c486c"/><path d="M0 72.453v-4.9h12.966v4.9H9.594v12.473H3.578V72.453H0M23.726 84.926v-6.068H20.33v6.068h-6.016V67.552h6.016v6.405h3.397v-6.405h6.016v17.374h-6.016M31.577 84.926V67.552h13.017v4.797h-7.001v1.478h5.446v4.746h-5.446v1.556h7.001v4.797H31.577M51.974 84.926V67.552h12.524v4.901H57.99v2.8h4.953v4.902H57.99v4.77h-6.016M71.706 67.552v11.384c0 .501.12.856.363 1.063.259.207.682.311 1.27.311s1.003-.104 1.245-.311c.242-.207.363-.562.363-1.063V67.552h6.016V78.6c0 2.455-.614 4.183-1.841 5.186-1.228.985-3.164 1.478-5.809 1.478-2.627 0-4.555-.484-5.782-1.452-1.228-.968-1.841-2.671-1.841-5.109v-11.15h6.016M82.158 72.453v-4.9h12.965v4.9h-3.37v12.473h-6.017V72.453h-3.578M102.384 67.552v11.384c0 .501.12.856.363 1.063.259.207.682.311 1.27.311s1.003-.104 1.245-.311c.242-.207.363-.562.363-1.063V67.552h6.016V78.6c0 2.455-.614 4.183-1.841 5.186-1.228.985-3.164 1.478-5.809 1.478-2.627 0-4.555-.484-5.782-1.452-1.228-.968-1.841-2.671-1.841-5.109v-11.15h6.016M120.874 80.44h-1.478v4.486h-6.016V67.552h7.313c2.68 0 4.598.45 5.757 1.349 1.158.881 1.737 2.532 1.737 4.952 0 2.403-.64 4.123-1.919 5.16l1.711 5.913h-6.12l-.985-4.486m-.026-4.746c.848 0 1.271-.561 1.271-1.685 0-1.141-.475-1.711-1.426-1.711h-1.323v3.396h1.478M129.682 84.926V67.552h13.017v4.797h-7.001v1.478h5.445v4.746h-5.445v1.556h7.001v4.797h-13.017M155.783 76.239c0 1.47.138 2.533.415 3.19.294.64.89.959 1.79.959.916 0 1.512-.32 1.789-.96.276-.64.414-1.702.414-3.189 0-1.504-.138-2.567-.414-3.19-.26-.64-.848-.959-1.764-.959s-1.521.329-1.815.985c-.277.64-.415 1.695-.415 3.164m10.476 0c0 3.164-.657 5.463-1.97 6.898-1.314 1.417-3.415 2.126-6.302 2.126-2.87 0-4.97-.717-6.3-2.152-1.315-1.435-1.972-3.726-1.972-6.872 0-3.164.657-5.454 1.971-6.872 1.314-1.435 3.414-2.152 6.301-2.152s4.988.717 6.302 2.152c1.313 1.418 1.97 3.708 1.97 6.872M167.747 84.926V67.552h12.525v4.901h-6.509v2.8h4.953v4.902h-4.953v4.77h-6.016M193.14 76.239c0 1.47.138 2.533.414 3.19.294.64.89.959 1.79.959.916 0 1.512-.32 1.789-.96.277-.64.415-1.702.415-3.189 0-1.504-.138-2.567-.415-3.19-.26-.64-.847-.959-1.763-.959-.917 0-1.522.329-1.816.985-.276.64-.414 1.695-.414 3.164m10.476 0c0 3.164-.657 5.463-1.971 6.898-1.314 1.417-3.414 2.126-6.301 2.126-2.87 0-4.97-.717-6.302-2.152-1.313-1.435-1.97-3.726-1.97-6.872 0-3.164.657-5.454 1.97-6.872 1.314-1.435 3.415-2.152 6.302-2.152 2.887 0 4.987.717 6.3 2.152 1.315 1.418 1.972 3.708 1.972 6.872M211.923 81.244h-.804v3.682h-6.016V67.552h6.82c2.749 0 4.746.476 5.99 1.426 1.262.951 1.893 2.74 1.893 5.368 0 2.61-.63 4.417-1.893 5.42-1.262.985-3.258 1.478-5.99 1.478m-.804-4.746h.545c.743 0 1.27-.164 1.582-.492.328-.329.492-.89.492-1.686 0-.795-.155-1.331-.466-1.608-.294-.276-.83-.414-1.608-.414h-.545v4.2M221.253 84.926V67.552h13.017v4.797h-7.001v1.478h5.445v4.746h-5.445v1.556h7.001v4.797h-13.017M235.781 84.926V67.552h5.913l3.993 6.587h.363v-6.587h6.016v17.374h-5.938l-3.942-7.08h-.389v7.08h-6.016M272.999 72.557c-2.438-.26-4.21-.39-5.316-.39-1.106 0-1.755.035-1.945.105-.173.051-.26.172-.26.363 0 .19.105.337.312.44.207.104.856.277 1.945.52 1.106.241 2.005.483 2.697.725a5.98 5.98 0 0 1 1.893.986c.57.414.942.933 1.115 1.555.19.605.285 1.427.285 2.464 0 2.143-.57 3.673-1.712 4.59-1.14.916-2.86 1.374-5.16 1.374-1.106 0-2.273-.078-3.5-.233-1.21-.156-2.144-.312-2.801-.467l-1.011-.234.259-4.59c2.645.381 4.814.571 6.509.571.899 0 1.348-.199 1.348-.596 0-.173-.104-.294-.311-.363-.208-.087-.77-.2-1.686-.337-2.42-.38-4.07-.969-4.952-1.764-.865-.812-1.297-2.135-1.297-3.967 0-2.334.562-3.933 1.686-4.797 1.123-.865 2.852-1.297 5.186-1.297 1.642 0 3.57.164 5.782.493l1.09.181-.156 4.668M280.767 76.239c0 1.47.138 2.533.415 3.19.294.64.89.959 1.79.959.916 0 1.512-.32 1.789-.96.276-.64.414-1.702.414-3.189 0-1.504-.138-2.567-.414-3.19-.26-.64-.848-.959-1.764-.959s-1.521.329-1.815.985c-.277.64-.415 1.695-.415 3.164m10.476 0c0 3.164-.657 5.463-1.97 6.898-1.314 1.417-3.415 2.126-6.302 2.126-2.87 0-4.97-.717-6.3-2.152-1.315-1.435-1.972-3.726-1.972-6.872 0-3.164.657-5.454 1.971-6.872 1.314-1.435 3.414-2.152 6.301-2.152s4.988.717 6.302 2.152c1.313 1.418 1.97 3.708 1.97 6.872M298.643 67.552v11.384c0 .501.121.856.363 1.063.26.207.683.311 1.271.311.588 0 1.003-.104 1.245-.311.242-.207.363-.562.363-1.063V67.552h6.016V78.6c0 2.455-.614 4.183-1.841 5.186-1.228.985-3.164 1.478-5.809 1.478-2.628 0-4.555-.484-5.783-1.452-1.227-.968-1.84-2.671-1.84-5.109v-11.15h6.015M317.134 80.44h-1.478v4.486h-6.016V67.552h7.313c2.68 0 4.598.45 5.756 1.349 1.159.881 1.738 2.532 1.738 4.952 0 2.403-.64 4.123-1.92 5.16l1.712 5.913h-6.12l-.985-4.486m-.026-4.746c.847 0 1.27-.561 1.27-1.685 0-1.141-.475-1.711-1.425-1.711h-1.323v3.396h1.478M338.622 84.589c-1.833.45-3.709.674-5.627.674-1.92 0-3.397-.268-4.435-.804-1.037-.553-1.789-1.47-2.256-2.749-.45-1.279-.674-3.12-.674-5.523 0-3.44.527-5.791 1.582-7.053 1.072-1.28 3.103-1.919 6.094-1.919 1.244 0 2.714.173 4.408.519l.908.181-.156 4.642a32.713 32.713 0 0 0-3.941-.26c-1.193 0-1.963.234-2.308.7-.346.45-.519 1.392-.519 2.827s.078 2.429.233 2.982c.173.553.441.925.804 1.115.363.173.951.26 1.764.26l4.045-.156.078 4.564M340.065 84.926V67.552h13.017v4.797h-7.001v1.478h5.445v4.746h-5.445v1.556h7.001v4.797h-13.017" style="text-align:start;line-height:100%;-inkscape-font-specification:Titillium Web Heavy" font-weight="900" letter-spacing=".297" font-family="Titillium Web"/></g></g></svg>